<svg width="23" height="25" viewBox="0 0 23 25" fill="none" xmlns="http://www.w3.org/2000/svg">
<path d="M11.5 0.5C12.0407 0.500001 12.509 0.656486 12.9229 0.969727L12.9258 0.972656L21.5508 7.40137L21.5557 7.4043C21.8495 7.6185 22.08 7.89033 22.249 8.22559C22.4176 8.56008 22.5007 8.91087 22.5 9.28418V22.1426C22.5 22.7934 22.2728 23.3394 21.8027 23.8066C21.3325 24.2739 20.7823 24.5007 20.126 24.5H14.375C14.0929 24.5 13.8805 24.4103 13.7041 24.2344C13.5492 24.0798 13.4613 23.8993 13.4414 23.6709L13.4375 23.5703V15.9287H9.5625V23.5713C9.5625 23.8489 9.4733 24.0591 9.2959 24.2354C9.11841 24.4117 8.90633 24.5007 8.62598 24.5H2.875C2.21691 24.5 1.66646 24.2729 1.19727 23.8066C0.728423 23.3406 0.500872 22.7948 0.5 22.1426V9.28613C0.5 8.91221 0.584021 8.5606 0.75293 8.22559C0.922201 7.88994 1.15219 7.61751 1.44531 7.40332L1.44922 7.40137L10.0742 0.972656L10.0771 0.969727C10.491 0.656488 10.9593 0.5 11.5 0.5ZM20.625 9.03516L20.4238 8.88477L11.7988 2.45605L11.5 2.2334L11.2012 2.45605L2.57617 8.88477L2.375 9.03516V22.6426H7.6875V15C7.6875 14.7224 7.7763 14.513 7.95312 14.3379C8.13107 14.1617 8.34438 14.072 8.62598 14.0713H14.375C14.6571 14.0713 14.8703 14.1614 15.0479 14.3379C15.2249 14.514 15.3132 14.7233 15.3125 14.999V22.6426H20.625V9.03516Z" fill="#4A2E0B" stroke="#4A2E0B"/>
</svg>
