<svg width="25" height="25" viewBox="0 0 25 25" fill="none" xmlns="http://www.w3.org/2000/svg">
<path d="M12.5 0.015625C19.395 0.015641 24.9844 5.60507 24.9844 12.5C24.9844 19.3949 19.395 24.9844 12.5 24.9844C5.60513 24.9844 0.015641 19.3949 0.015625 12.5C0.015625 5.60506 5.60512 0.015625 12.5 0.015625ZM12.5 2.48438C6.97735 2.48438 2.48438 6.97735 2.48438 12.5C2.48439 18.0226 6.97742 22.5156 12.5 22.5156C18.0227 22.5156 22.5156 18.0226 22.5156 12.5C22.5156 6.97736 18.0227 2.48439 12.5 2.48438ZM13.7373 11.2656V18.7344H11.2686V11.2656H13.7373ZM12.5127 5.95312C13.3967 5.95313 14.0498 6.60354 14.0498 7.5C14.0498 8.39773 13.3967 9.04687 12.5127 9.04688C12.0523 9.04688 11.6635 8.88443 11.3896 8.6084C11.1158 8.33209 10.9561 7.94051 10.9561 7.48242C10.9562 6.60368 11.6098 5.95312 12.5127 5.95312Z" fill="#4A2E0B" stroke="#4A2E0B" stroke-width="0.03125"/>
</svg>
