<svg width="25" height="25" viewBox="0 0 25 25" fill="none" xmlns="http://www.w3.org/2000/svg">
<path d="M1.65234 0.5H6.45801C6.93187 0.5 7.33301 0.901143 7.33301 1.375C7.33301 3.13147 7.60421 4.83463 8.13379 6.42676V6.42773C8.2321 6.74056 8.16258 7.08331 7.92773 7.33496L5.24512 9.61914L4.95117 9.86914L5.11914 10.2168C7.12895 14.3931 10.8948 18.0155 14.9238 19.9375L15.2822 20.1084L15.5303 19.7979L17.6885 17.0889C17.7997 16.981 17.9379 16.905 18.0889 16.8691C18.2457 16.8319 18.4097 16.8392 18.5625 16.8906L18.5684 16.8926C20.1579 17.4081 21.8626 17.6943 23.625 17.6943C24.0988 17.6943 24.4999 18.0955 24.5 18.5693V23.3613C24.5 23.669 24.4201 23.9704 24.2734 24.1797C24.1409 24.3686 23.9455 24.5 23.625 24.5C11.0121 24.5 0.5 14.0014 0.5 1.375C0.5 1.02564 0.638801 0.836186 0.823242 0.712891C1.03395 0.572036 1.33902 0.500066 1.65234 0.5Z" fill="#4A2E0B" stroke="#4A2E0B"/>
</svg>
