<svg width="25" height="25" viewBox="0 0 25 25" fill="none" xmlns="http://www.w3.org/2000/svg">
<path d="M2.5 0.5H20C20.5304 0.5 21.039 0.710864 21.4141 1.08594C21.7891 1.46101 22 1.96957 22 2.5V10.3301L22.1436 10.4756C23.6044 11.96 24.5 13.9979 24.5 16.25C24.5 18.438 23.6312 20.5368 22.084 22.084C20.5368 23.6312 18.438 24.5 16.25 24.5C13.9979 24.5 11.96 23.6044 10.4756 22.1436L10.3301 22H2.5C1.96957 22 1.46101 21.7891 1.08594 21.4141C0.710864 21.039 0.5 20.5304 0.5 20V2.5C0.5 1.96957 0.710865 1.46101 1.08594 1.08594C1.46101 0.710865 1.96957 0.5 2.5 0.5ZM16.25 9.6875C14.5095 9.6875 12.8401 10.3787 11.6094 11.6094C10.3787 12.8401 9.6875 14.5095 9.6875 16.25C9.6875 19.8761 12.6239 22.8125 16.25 22.8125C17.1118 22.8125 17.9655 22.6423 18.7617 22.3125C19.5577 21.9827 20.2814 21.4999 20.8906 20.8906C21.4999 20.2814 21.9827 19.5577 22.3125 18.7617C22.6423 17.9655 22.8125 17.1118 22.8125 16.25C22.8125 12.6239 19.8761 9.6875 16.25 9.6875ZM2 20.5H9.12695L8.79004 19.7861C8.28355 18.7142 8 17.5123 8 16.25V15.75H2V20.5ZM16.375 13V16.3135L16.625 16.458L19.2422 17.9707L18.8037 18.7295L15.5 16.8232V13H16.375ZM2 14.25H8.23633L8.3418 13.8916C8.74219 12.5374 9.48481 11.3237 10.4746 10.3574L11.3525 9.5H2V14.25ZM2 8H10.5V3.25H2V8ZM12 8H20.5V3.25H12V8Z" fill="#4A2E0B" stroke="#4A2E0B"/>
</svg>
