<svg width="80" height="80" viewBox="0 0 80 80" fill="none" xmlns="http://www.w3.org/2000/svg">
<path fill-rule="evenodd" clip-rule="evenodd" d="M40 2.5C40.8841 2.5 41.7319 2.85119 42.357 3.47631C42.9821 4.10143 43.3333 4.94928 43.3333 5.83333V10.8333C43.3333 11.7174 42.9821 12.5652 42.357 13.1904C41.7319 13.8155 40.8841 14.1667 40 14.1667C39.1159 14.1667 38.2681 13.8155 37.643 13.1904C37.0179 12.5652 36.6667 11.7174 36.6667 10.8333V5.83333C36.6667 4.94928 37.0179 4.10143 37.643 3.47631C38.2681 2.85119 39.1159 2.5 40 2.5ZM40 22.5C29.875 22.5 21.6667 30.7083 21.6667 40.8333C21.6667 42.8067 21.9783 44.7017 22.55 46.475C22.8122 47.3135 22.7327 48.2216 22.3289 49.0018C21.925 49.7821 21.2295 50.3713 20.3936 50.6415C19.5576 50.9116 18.6488 50.8409 17.8647 50.4445C17.0807 50.0482 16.4848 49.3583 16.2067 48.525C15.4052 46.0399 14.9981 43.4445 15 40.8333C15 27.0267 26.1933 15.8333 40 15.8333C53.8067 15.8333 65 27.0267 65 40.8333C65 43.5117 64.5783 46.0983 63.7933 48.525C63.5152 49.3583 62.9193 50.0482 62.1353 50.4445C61.3512 50.8409 60.4424 50.9116 59.6064 50.6415C58.7705 50.3713 58.075 49.7821 57.6711 49.0018C57.2673 48.2216 57.1878 47.3135 57.45 46.475C58.0217 44.7017 58.3333 42.8083 58.3333 40.8333C58.3333 30.7083 50.125 22.5 40 22.5ZM75 44.1667C75.8841 44.1667 76.7319 43.8155 77.357 43.1904C77.9821 42.5652 78.3333 41.7174 78.3333 40.8333C78.3333 39.9493 77.9821 39.1014 77.357 38.4763C76.7319 37.8512 75.8841 37.5 75 37.5H70C69.1159 37.5 68.2681 37.8512 67.643 38.4763C67.0179 39.1014 66.6667 39.9493 66.6667 40.8333C66.6667 41.7174 67.0179 42.5652 67.643 43.1904C68.2681 43.8155 69.1159 44.1667 70 44.1667H75ZM13.3333 40.8333C13.3333 41.7174 12.9821 42.5652 12.357 43.1904C11.7319 43.8155 10.8841 44.1667 10 44.1667H5C4.11594 44.1667 3.2681 43.8155 2.64298 43.1904C2.01786 42.5652 1.66667 41.7174 1.66667 40.8333C1.66667 39.9493 2.01786 39.1014 2.64298 38.4763C3.2681 37.8512 4.11594 37.5 5 37.5H10C10.8841 37.5 11.7319 37.8512 12.357 38.4763C12.9821 39.1014 13.3333 39.9493 13.3333 40.8333ZM16.43 21.9767C17.0587 22.5839 17.9007 22.9198 18.7747 22.9122C19.6487 22.9047 20.4847 22.5541 21.1027 21.9361C21.7208 21.318 22.0713 20.482 22.0789 19.608C22.0865 18.734 21.7505 17.892 21.1433 17.2633L17.6083 13.7267C16.9831 13.1014 16.1351 12.7502 15.2508 12.7502C14.3666 12.7502 13.5186 13.1014 12.8933 13.7267C12.2681 14.3519 11.9168 15.1999 11.9168 16.0842C11.9168 16.522 12.0031 16.9555 12.1706 17.36C12.3382 17.7645 12.5837 18.1321 12.8933 18.4417L16.43 21.9767ZM58.8567 21.9767C59.4818 22.6016 60.3295 22.9526 61.2133 22.9526C62.0972 22.9526 62.9449 22.6016 63.57 21.9767L67.1067 18.4417C67.7319 17.8164 68.0832 16.9684 68.0832 16.0842C68.0832 15.1999 67.7319 14.3519 67.1067 13.7267C66.4814 13.1014 65.6334 12.7502 64.7492 12.7502C63.8649 12.7502 63.0169 13.1014 62.3917 13.7267L58.8567 17.2633C58.2318 17.8884 57.8807 18.7361 57.8807 19.62C57.8807 20.5039 58.2318 21.3516 58.8567 21.9767ZM11.9283 56.2C13.3303 55.2613 14.9795 54.7602 16.6667 54.7602C18.3539 54.7602 20.003 55.2613 21.405 56.2C23.4481 57.5901 25.8622 58.3334 28.3333 58.3334C30.8045 58.3334 33.2185 57.5901 35.2617 56.2C36.6636 55.2613 38.3128 54.7602 40 54.7602C41.6872 54.7602 43.3364 55.2613 44.7383 56.2C46.7821 57.5885 49.1958 58.3312 51.6667 58.3317C54.1377 58.3307 56.5514 57.5874 58.595 56.1983C59.997 55.2597 61.6461 54.7585 63.3333 54.7585C65.0205 54.7585 66.6697 55.2597 68.0717 56.1983C70.1152 57.5874 72.529 58.3307 75 58.3317C75.9946 58.3317 76.9484 58.7268 77.6516 59.43C78.3549 60.1333 78.75 61.0871 78.75 62.0817C78.75 63.0762 78.3549 64.0301 77.6516 64.7333C76.9484 65.4366 75.9946 65.8317 75 65.8317C71.1133 65.8317 67.2283 64.6883 63.8617 62.405C63.7025 62.3082 63.5197 62.2569 63.3333 62.2569C63.147 62.2569 62.9642 62.3082 62.805 62.405C59.5196 64.6377 55.639 65.8315 51.6667 65.8315C47.6944 65.8315 43.8138 64.6377 40.5283 62.405C40.3691 62.3082 40.1864 62.2569 40 62.2569C39.8136 62.2569 39.6309 62.3082 39.4717 62.405C36.1862 64.6377 32.3056 65.8315 28.3333 65.8315C24.361 65.8315 20.4804 64.6377 17.195 62.405C17.0358 62.3082 16.853 62.2569 16.6667 62.2569C16.4803 62.2569 16.2975 62.3082 16.1383 62.405C12.8527 64.6374 8.97232 65.8318 5 65.8333C4.00544 65.8333 3.05161 65.4383 2.34835 64.735C1.64509 64.0317 1.25 63.0779 1.25 62.0833C1.25 61.0888 1.64509 60.1349 2.34835 59.4317C3.05161 58.7284 4.00544 58.3333 5 58.3333C7.47118 58.3318 9.88493 57.5897 11.9283 56.2ZM11.9283 67.865C13.3303 66.9263 14.9795 66.4252 16.6667 66.4252C18.3539 66.4252 20.003 66.9263 21.405 67.865C23.4481 69.2551 25.8622 69.9984 28.3333 69.9984C30.8045 69.9984 33.2185 69.2551 35.2617 67.865C36.6636 66.9263 38.3128 66.4252 40 66.4252C41.6872 66.4252 43.3364 66.9263 44.7383 67.865C46.7819 69.2541 49.1957 69.9973 51.6667 69.9983C54.1377 69.9973 56.5514 69.2541 58.595 67.865C59.997 66.9263 61.6461 66.4252 63.3333 66.4252C65.0205 66.4252 66.6697 66.9263 68.0717 67.865C70.1152 69.2541 72.529 69.9973 75 69.9983C75.9946 69.9983 76.9484 70.3934 77.6516 71.0967C78.3549 71.7999 78.75 72.7538 78.75 73.7483C78.75 74.7429 78.3549 75.6967 77.6516 76.4C76.9484 77.1032 75.9946 77.4983 75 77.4983H5C4.01935 77.4777 3.08583 77.0736 2.3996 76.3727C1.71337 75.6719 1.32905 74.73 1.32905 73.7492C1.32905 72.7683 1.71337 71.8265 2.3996 71.1256C3.08583 70.4248 4.01935 70.0207 5 70C7.47101 69.999 9.88474 69.2541 11.9283 67.865Z" fill="#EADDCA"/>
</svg>
